<?xml version="1.0" encoding="utf-8"?>
<!-- Generator: Adobe Illustrator 24.1.2, SVG Export Plug-In . SVG Version: 6.00 Build 0)  -->
<svg version="1.1" id="Layer_1" xmlns="http://www.w3.org/2000/svg" xmlns:xlink="http://www.w3.org/1999/xlink" x="0px" y="0px"
	 viewBox="0 0 595.28 841.89" style="enable-background:new 0 0 595.28 841.89;" xml:space="preserve">
<style type="text/css">
	.st0{fill:#010101;}
	.st1{fill:none;}
	.st2{font-family:'Coutline-Regular';}
	.st3{font-size:95px;}
</style>
<g transform="translate(0.000000,434.000000) scale(0.100000,-0.100000)">
	<path class="st0" d="M3871.48,3844.28c-2.64-2.86-46.26-8.58-97.8-14.3c-244.49-21.45-492.95-84.39-736.13-185.94
		c-50.22-20.02-89.87-34.33-89.87-31.47s14.54,48.63,33.04,100.12c18.5,52.92,33.04,98.69,33.04,101.55
		c0,24.31-391.19-71.51-515.42-124.44c-179.74-77.24-364.76-215.97-487.67-364.72l-66.08-78.67l-99.12,87.25
		c-54.19,47.2-101.76,87.25-104.41,87.25c-22.47,0-145.38-233.14-177.09-333.26c-34.36-111.56-35.68-130.16-35.68-389.04
		c0-290.35,17.18-420.5,91.19-687.97c33.04-115.85,33.04-121.57,33.04-703.7V719.1l-46.26-10.01
		c-63.44-12.87-137.45,31.47-174.45,102.98c-60.79,115.85-52.86,317.52,22.47,577.84c22.47,72.94,39.65,140.17,39.65,145.89
		c0,7.15-51.54-32.9-114.98-87.25c-322.47-274.62-481.06-566.39-502.21-923.97c-23.79-399.05,163.88-736.6,478.42-859.6l79.3-31.47
		l-72.69-22.88c-117.62-38.62-256.39-44.34-381.94-17.16c-60.79,12.87-112.34,22.88-113.66,20.02
		c-5.29-5.72,34.36-184.51,66.08-304.65c72.69-267.46,285.46-563.53,539.21-748.04c269.6-198.81,584.14-313.23,1007.05-369.01
		c548.46-71.51,1163-22.88,1570.05,124.44c520.71,188.8,856.39,512.04,1005.73,975.46c46.26,138.74,83.26,306.08,70.04,318.95
		c-2.64,4.29-51.54-2.86-107.05-14.3c-126.87-28.61-210.13-28.61-329.08,0c-91.19,21.45-145.38,48.63-99.12,48.63
		c51.54,0,231.28,115.85,307.93,198.81c148.02,161.62,202.2,307.51,214.1,580.7c6.61,145.89,3.96,188.8-21.15,293.21
		c-67.4,288.92-240.53,546.37-512.78,762.34c-37,28.61-70.04,52.92-74.01,52.92c-2.64,0,15.86-72.94,40.97-160.19
		c42.29-145.89,47.58-177.36,48.9-326.11c0-188.8-21.15-254.59-97.8-310.37c-48.9-35.76-75.33-40.05-126.87-18.59l-33.04,14.3
		v629.33l1.32,630.76l46.26,200.24c52.86,230.28,71.37,278.91,173.13,476.29c87.23,168.77,179.74,320.38,261.68,430.52l59.47,78.67
		l-81.94,65.79c-185.02,148.75-383.26,213.11-625.11,203.1l-134.8-4.29l9.25,35.76c6.61,20.02,30.4,100.12,52.86,178.79
		c23.79,78.67,44.93,154.47,48.9,168.77c6.61,21.45-5.29,24.31-130.84,24.31C3938.88,3850,3874.12,3847.14,3871.48,3844.28z
		 M3500.11,3573.95c-252.42-148.75-540.53-414.78-705.73-652.21c-46.26-65.79-84.58-124.44-84.58-130.16
		c0-5.72-93.83-14.3-207.49-18.59c-137.45-4.29-231.28-14.3-273.57-28.61l-64.76-22.88l9.25,100.12
		c9.25,117.28,44.93,224.56,101.76,310.37l42.29,62.93l-40.97-22.88c-68.72-38.62-174.45-161.62-208.81-244.58
		c-22.47-50.06-37-115.85-40.97-183.08c-6.61-88.68-11.89-107.27-40.97-130.16c-33.04-27.18-33.04-27.18-59.47,7.15
		c-70.04,91.54-121.59,297.5-112.34,449.11l3.96,67.22l84.58-72.94c46.26-40.05,88.55-72.94,92.51-72.94
		c5.29,0,25.11,34.33,43.61,77.24c91.19,200.24,343.61,406.2,605.29,494.88l72.69,24.31l-75.33-85.82
		c-121.59-134.45-251.1-384.75-300-574.98c-11.89-50.06-7.93-47.2,93.83,70.08c204.85,237.43,408.37,383.32,704.41,502.03
		c124.23,50.06,399.12,134.45,442.73,134.45C3592.62,3635.46,3555.62,3608.28,3500.11,3573.95z M3912.45,3589.69
		c0-10.01-26.43-101.55-58.15-204.53c-31.72-101.55-55.51-187.37-54.19-190.23c2.64-2.86,54.19,12.87,114.98,34.33
		c158.59,55.78,372.69,64.36,519.39,21.45c58.15-17.16,130.84-48.63,162.56-67.22c55.51-35.76,56.83-37.19,35.68-67.22
		c-133.48-198.81-272.25-469.13-333.04-650.78c-40.97-120.14-52.86-143.03-63.44-123c-6.61,12.87-38.33,58.64-70.04,101.55
		c-54.19,72.94-56.83,80.1-42.29,124.44c7.93,27.18,40.97,88.68,72.69,138.74s55.51,92.97,52.86,95.83
		c-7.93,8.58-87.23-40.05-177.09-107.27l-84.58-64.36l-67.4,35.76c-37,20.02-93.83,47.2-125.55,61.5l-59.47,25.75l54.19,50.06
		c132.16,127.3,414.98,267.46,598.68,298.93l72.69,12.87l-59.47,17.16c-88.55,28.61-288.11,12.87-403.09-31.47
		c-149.34-55.78-263-123-389.87-227.42l-118.94-97.26h-105.73c-64.76,0-105.73,5.72-105.73,14.3c0,61.5,112.34,200.24,282.82,348.99
		c34.36,30.04,59.47,57.21,56.83,61.5c-13.22,12.87-218.06-105.84-297.36-173.06c-44.93-37.19-114.98-108.7-157.27-158.76
		l-76.65-92.97h-101.76c-56.83,0-103.08,4.29-103.08,8.58c0,4.29,29.08,48.63,66.08,98.69
		c196.92,267.46,537.89,536.36,872.25,687.97C3905.84,3611.14,3912.45,3612.57,3912.45,3589.69z M1706.71,2824.48
		c19.82-110.13,64.76-215.97,116.3-278.91l40.97-51.49l-31.72-41.48c-17.18-21.45-48.9-71.51-71.37-108.7l-39.65-68.65l-13.22,68.65
		c-35.68,178.79-51.54,562.1-22.47,562.1C1688.21,2906.01,1697.46,2868.82,1706.71,2824.48z M3757.82,2567.03
		c163.88-67.22,300-207.39,374.01-383.32c31.72-77.24,37-110.13,46.26-314.66c14.54-340.41,14.54-1034.1-1.32-1044.11
		c-6.61-4.29-34.36,4.29-62.11,20.02c-27.75,14.3-75.33,34.33-105.73,44.34c-31.72,10.01-56.83,21.45-56.83,22.88
		c0,2.86,23.79,40.05,52.86,85.82c72.69,111.56,96.48,198.81,89.87,324.68c-9.25,185.94-97.8,336.12-251.1,426.23
		c-79.3,45.77-89.87,48.63-215.42,48.63c-117.62,0-140.09-4.29-207.49-40.05c-95.15-50.06-199.56-173.06-231.28-268.89
		c-22.47-68.65-25.11-70.08-63.44-60.07c-50.22,14.3-214.1,14.3-259.03,1.43c-30.4-10.01-35.68-4.29-70.04,74.38
		c-48.9,115.85-116.3,190.23-227.31,246.01c-81.94,42.91-103.08,47.2-210.13,47.2c-100.44,0-129.52-5.72-191.63-37.19
		c-146.7-75.81-255.07-243.15-272.25-423.37c-11.89-115.85,27.75-256.02,99.12-357.57l52.86-74.38l-42.29-10.01
		c-23.79-4.29-74.01-24.31-113.66-42.91c-38.33-18.59-72.69-34.33-75.33-34.33s-5.29,266.03-5.29,590.71
		c0,645.06,2.64,675.1,77.97,836.72c71.37,153.04,265.64,310.37,424.23,344.7c33.04,7.15,354.19,11.44,713.66,10.01
		C3665.31,2598.5,3682.49,2597.07,3757.82,2567.03z M2506.27,1593.01c108.37-60.07,163.88-161.62,163.88-298.93
		c0-251.73-239.21-406.2-449.34-290.35c-142.73,78.67-200.88,281.77-125.55,443.39C2171.91,1610.17,2356.93,1675.96,2506.27,1593.01
		z M3764.43,1591.58c72.69-40.05,130.84-117.28,154.63-208.82c34.36-127.3,3.96-237.43-89.87-331.83
		c-95.15-95.83-216.74-115.85-333.04-55.78c-79.3,40.05-114.98,80.1-150.66,165.91c-95.15,227.42,75.33,489.16,305.29,464.84
		C3685.13,1623.04,3735.35,1607.31,3764.43,1591.58z M3104.95,1281.2c44.93-18.59,51.54-28.61,58.15-77.24
		c9.25-80.1,55.51-174.5,124.23-257.45c35.68-42.91,51.54-71.51,39.65-71.51c-35.68,0-214.1-137.31-274.89-211.68l-58.15-74.37
		l-46.26,62.93c-54.19,72.94-155.95,158.76-233.92,197.38c-59.47,28.61-70.04,45.77-37,58.64
		c35.68,15.73,137.45,200.24,153.3,278.91c11.89,65.79,21.15,80.1,56.83,97.26C2942.4,1309.81,3041.52,1308.38,3104.95,1281.2z
		 M1137.1,817.79c-26.43-155.9,11.89-340.41,92.51-446.25c22.47-30.04,77.97-72.94,124.23-97.26
		c71.37-38.62,97.8-44.34,188.99-45.77c122.91,0,200.88,21.45,407.05,112.99c161.23,71.51,342.29,118.71,462.56,118.71
		c116.3,0,346.26-85.82,436.13-163.05c26.43-22.88,25.11-24.31-33.04-81.53c-77.97-78.67-261.68-211.68-376.65-274.62
		c-305.29-165.91-672.69-225.99-927.76-151.61c-91.19,25.75-187.67,68.65-116.3,50.06c161.23-40.05,282.82-17.16,488.99,92.97
		c87.23,45.77,218.06,118.71,290.75,161.62c154.63,92.97,256.39,133.02,399.12,157.33l103.08,17.16l-120.26,17.16
		c-185.02,27.18-274.89,2.86-561.68-147.32C1727.85-1.76,1620.8-33.23,1482.04-11.78c-121.59,18.59-263,95.83-356.83,195.95
		c-74.01,77.24-79.3,88.68-87.23,167.34c-14.54,123,1.32,287.49,38.33,403.34C1134.46,939.36,1162.21,969.4,1137.1,817.79z
		 M4908.93,774.88c43.61-125.87,52.86-175.93,50.22-293.21c-3.96-203.1-10.57-225.99-84.58-294.64
		C4719.94,42.57,4603.64-11.78,4451.66-11.78c-137.45,0-231.28,31.47-466.52,157.33c-116.3,61.5-237.89,120.14-270.93,130.16
		c-67.4,20.02-290.75,21.45-350.22,1.43c-35.68-11.44-29.07-14.3,62.11-28.61c112.34-18.59,261.68-78.67,393.83-157.33
		c47.58-27.18,163.88-94.4,259.03-147.32c191.63-105.84,303.97-137.31,438.77-123l75.33,8.58l-79.3-28.61
		c-112.34-41.48-344.94-51.49-502.21-21.45c-309.25,57.21-605.29,215.97-859.04,459.12c-44.93,42.91-47.58,38.62,87.23,114.42
		c133.48,74.37,225.99,98.69,368.72,97.26c148.02,0,231.28-21.45,453.31-117.28c207.49-90.11,260.35-105.84,372.69-105.84
		c288.11-2.86,449.34,210.25,424.23,562.1C4849.46,926.49,4857.39,923.63,4908.93,774.88z M2502.31,752
		c145.38-40.05,278.86-127.3,340.97-221.69c35.68-55.78,26.43-64.36-29.07-28.61c-87.23,52.92-253.75,104.41-364.76,112.99
		c-186.34,11.44-375.33-35.76-637.01-161.62c-145.38-70.08-292.07-84.39-387.23-38.62c-85.9,40.05-133.48,120.14-140.09,236
		l-5.29,88.68l40.97-58.64c56.83-82.96,151.98-134.45,248.46-135.88c87.23-1.43,97.8,2.86,289.43,101.55
		c76.65,40.05,182.38,85.82,233.92,100.12C2211.56,780.6,2393.94,782.03,2502.31,752z M3952.1,731.97
		c47.58-17.16,151.98-65.79,232.6-108.7c129.52-68.65,155.95-78.67,232.6-80.1c72.69-1.43,97.8,5.72,146.7,35.76
		c55.51,35.76,99.12,82.96,137.45,147.32c14.54,24.31,15.86,22.88,15.86-17.16c1.32-61.5-33.04-181.65-66.08-225.99
		c-51.54-71.51-122.91-98.69-235.24-91.54c-81.94,5.72-137.45,22.88-305.29,92.97c-266.96,112.99-318.5,125.87-508.81,125.87
		c-171.81,0-274.89-25.75-407.05-102.98c-34.36-21.45-66.08-34.33-70.04-28.61c-23.79,24.31,112.34,163.05,225.99,228.85
		c103.08,61.5,133.48,67.22,330.4,61.5C3830.51,764.87,3882.05,759.15,3952.1,731.97z M3040.2,124.1
		c18.5-20.02,63.44-62.93,101.76-95.83c80.62-67.22,77.97-81.53-18.5-117.28c-109.69-40.05-228.64-28.61-317.18,31.47
		c-29.07,18.59-26.43,22.88,79.3,117.28c59.47,54.35,112.34,98.69,116.3,98.69C3005.83,159.86,3023.02,144.12,3040.2,124.1z
		 M2671.47-322.15c-55.51-369.01-218.06-896.79-366.08-1184.28c-35.68-67.22-35.68-67.22-89.87-58.64
		c-30.4,5.72-112.34,28.61-182.38,52.92l-129.52,44.34l100.44,117.28c120.27,140.17,235.24,321.81,325.11,516.33
		c76.65,164.48,167.84,414.78,202.2,554.95c18.5,75.81,31.72,101.55,58.15,117.28c31.72,17.16,37,17.16,66.08-14.3
		C2687.33-209.16,2687.33-212.02,2671.47-322.15z M3461.78-286.39c42.29-154.47,155.95-460.55,215.42-583.56
		c85.9-175.93,212.78-371.87,313.22-483.44c51.54-57.21,93.83-105.84,93.83-108.7c0-15.73-288.11-108.7-338.33-108.7
		c-34.36,0-91.19,110.13-181.06,350.42c-112.34,298.93-173.13,516.33-228.64,812.4l-35.68,197.38l31.72,32.9
		c29.08,30.04,35.68,31.47,66.08,14.3C3426.1-179.12,3439.32-204.87,3461.78-286.39z M2352.97-290.68
		c0-2.86-26.43-80.1-59.47-171.63c-120.27-337.55-276.21-617.88-438.77-790.95c-121.59-127.3-122.91-128.73-211.45-74.38
		c-75.33,45.77-220.71,160.19-233.92,184.51c-3.96,5.72,35.68,34.33,88.55,62.93c196.92,105.84,436.13,333.26,634.36,602.15
		c68.72,95.83,121.59,153.04,153.3,168.77C2335.79-284.96,2352.97-279.24,2352.97-290.68z M2902.75-299.26
		c7.93-14.3,9.25-1347.33,1.32-1351.62c-7.93-2.86-337.01,21.45-391.19,30.04l-64.76,10.01l23.79,44.34
		c48.9,90.11,169.16,407.63,223.35,587.85c58.15,191.66,124.23,477.72,141.41,602.15c3.96,40.05,10.57,75.81,14.54,82.96
		C2859.14-277.81,2892.18-282.1,2902.75-299.26z M3171.03-458.03c56.83-324.68,167.84-692.26,298.68-992.62l70.04-160.19
		l-51.54-8.58c-27.75-4.29-105.73-12.87-173.13-15.73c-67.4-4.29-148.02-11.44-178.42-14.3l-56.83-7.15v677.96
		c0,723.73-3.96,679.39,52.86,693.69C3136.67-284.96,3153.85-362.2,3171.03-458.03z M3749.89-335.02
		c17.18-11.44,39.65-38.62,52.86-60.07c47.58-82.96,192.95-261.74,307.93-379.03c142.73-147.32,249.78-231.71,384.58-304.65
		l101.76-52.92l-55.51-50.06c-70.04-64.36-247.14-188.8-269.6-188.8c-33.04,0-231.28,223.13-309.25,348.99
		c-96.48,155.9-202.2,381.89-266.96,569.25c-26.43,75.81-47.58,143.03-47.58,148.75C3648.13-290.68,3715.53-310.71,3749.89-335.02z
		 M1956.49-417.98c0-24.31-307.93-344.7-384.58-397.62c-100.44-71.51-255.07-154.47-286.79-154.47s-85.9,88.68-146.7,240.29
		c-22.47,55.78-40.97,102.98-40.97,107.27c0,2.86,55.51,10.01,122.91,14.3c138.77,8.58,280.18,51.49,432.16,134.45
		c66.08,35.76,125.55,55.78,178.42,61.5C1936.67-400.82,1956.49-400.82,1956.49-417.98z M4315.53-463.75
		c116.3-68.65,311.9-133.02,441.41-147.32c62.11-7.15,117.62-10.01,124.23-5.72c35.68,24.31-33.04-157.33-107.05-277.48
		c-27.75-45.77-55.51-75.81-70.04-75.81c-13.22,0-76.65,30.04-142.73,65.79c-140.09,77.24-326.43,240.29-454.63,396.19l-89.87,108.7
		l109.69-8.58C4215.09-415.12,4250.78-425.13,4315.53-463.75z"/>
</g>
<polygon class="st1" points="342,165 381,165 381,165 342,165 "/>
<polygon class="st1" points="322,305 331,305 331,305 322,305 "/>
<text transform="matrix(1 0 0 1 86.4585 734)" class="st2 st3">  Crypdo</text>
</svg>
