<?xml version="1.0" encoding="iso-8859-1"?>
<!-- Generator: Adobe Illustrator 19.0.0, SVG Export Plug-In . SVG Version: 6.00 Build 0)  -->
<svg version="1.1" id="Capa_1" xmlns="http://www.w3.org/2000/svg" xmlns:xlink="http://www.w3.org/1999/xlink" x="0px" y="0px"
	 viewBox="0 0 416 416" style="enable-background:new 0 0 416 416;" xml:space="preserve">
<g>
	<g>
		<rect x="120.038" y="279" width="19" height="137"/>
	</g>
</g>
<g>
	<g>
		<rect x="199.038" y="256" width="19" height="160"/>
	</g>
</g>
<g>
	<g>
		<rect x="42.038" y="365" width="18" height="51"/>
	</g>
</g>
<g>
	<g>
		<rect x="277.039" y="198" width="19" height="218"/>
	</g>
</g>
<g>
	<g>
		<rect x="356.039" y="146" width="18" height="270"/>
	</g>
</g>
<g>
	<g>
		<path d="M399.939,2.7c-2-1.7-4.5-2.7-7.2-2.7h-68.5c-5.5,0-10,4.5-10,10s4.5,10,10,10l44.2-0.1l-108.1,108.2l-37.9-38.1
			c-1.9-1.9-4.4-3-7.1-3.1c-2.7,0.1-5.2,1.2-7.1,3.1l-192,192.2c-4,3.8-4.1,10.2-0.3,14.2c3.8,4,10.2,4.1,14.2,0.3
			c0.1-0.1,0.2-0.2,0.3-0.2l185-185l37.9,37.8c1.9,1.8,4.4,2.8,7.1,2.8c2.6,0,5.2-1,7.1-2.8L382.838,34l-0.1,44.1
			c0,5.5,4.4,9.9,9.9,9.9h0.1c5.5,0.1,9.9-4.3,10-9.8c0,0,0,0,0-0.1l0.1-68.4C402.839,7.1,401.739,4.6,399.939,2.7z"/>
	</g>
</g>
<g>
</g>
<g>
</g>
<g>
</g>
<g>
</g>
<g>
</g>
<g>
</g>
<g>
</g>
<g>
</g>
<g>
</g>
<g>
</g>
<g>
</g>
<g>
</g>
<g>
</g>
<g>
</g>
<g>
</g>
</svg>
