<svg width="32" height="27" viewBox="0 0 32 27" fill="none" xmlns="http://www.w3.org/2000/svg">
<g filter="url(#filter0_d)">
<path d="M28 18C28 18.1 28 18.3 27.9 18.4C27.8 18.6 27.6 18.8 27.4 18.9C27.3 19 27.1 19 27 19H21C20.4 19 20 18.6 20 18C20 17.4 20.4 17 21 17H24.6L17.5 9.9L13.2 14.2C12.8 14.6 12.2 14.6 11.8 14.2L4.3 6.7C3.9 6.3 3.9 5.7 4.3 5.3C4.7 4.9 5.3 4.9 5.7 5.3L12.5 12.1L16.8 7.8C17.2 7.4 17.8 7.4 18.2 7.8L26 15.6V12C26 11.4 26.4 11 27 11C27.6 11 28 11.4 28 12V18Z" fill="black"/>
<mask id="mask0" mask-type="alpha" maskUnits="userSpaceOnUse" x="4" y="5" width="24" height="14">
<path d="M28 18C28 18.1 28 18.3 27.9 18.4C27.8 18.6 27.6 18.8 27.4 18.9C27.3 19 27.1 19 27 19H21C20.4 19 20 18.6 20 18C20 17.4 20.4 17 21 17H24.6L17.5 9.9L13.2 14.2C12.8 14.6 12.2 14.6 11.8 14.2L4.3 6.7C3.9 6.3 3.9 5.7 4.3 5.3C4.7 4.9 5.3 4.9 5.7 5.3L12.5 12.1L16.8 7.8C17.2 7.4 17.8 7.4 18.2 7.8L26 15.6V12C26 11.4 26.4 11 27 11C27.6 11 28 11.4 28 12V18Z" fill="white"/>
</mask>
<g mask="url(#mask0)">
<rect x="4" width="24" height="24" fill="#347AF0"/>
</g>
</g>
<defs>
<filter id="filter0_d" x="0" y="0" width="32" height="32" filterUnits="userSpaceOnUse" color-interpolation-filters="sRGB">
<feFlood flood-opacity="0" result="BackgroundImageFix"/>
<feColorMatrix in="SourceAlpha" type="matrix" values="0 0 0 0 0 0 0 0 0 0 0 0 0 0 0 0 0 0 127 0" result="hardAlpha"/>
<feOffset dy="4"/>
<feGaussianBlur stdDeviation="2"/>
<feComposite in2="hardAlpha" operator="out"/>
<feColorMatrix type="matrix" values="0 0 0 0 0 0 0 0 0 0 0 0 0 0 0 0 0 0 0.25 0"/>
<feBlend mode="normal" in2="BackgroundImageFix" result="effect1_dropShadow"/>
<feBlend mode="normal" in="SourceGraphic" in2="effect1_dropShadow" result="shape"/>
</filter>
</defs>
</svg>
