<svg width="28" height="24" viewBox="0 0 28 24" fill="none" xmlns="http://www.w3.org/2000/svg">
<g filter="url(#filter0_d)">
<path fill-rule="evenodd" clip-rule="evenodd" d="M22.9919 9C23.3915 9 23.6913 9.2 23.8911 9.6C24.0909 9.9 23.991 10.3 23.7912 10.6L13.8002 22.6C13.6004 22.9 13.3006 23 13.0009 23C12.901 23 12.7012 23 12.6013 22.9C12.2016 22.8 11.9019 22.3 12.0018 21.9L12.901 15H5.00811C4.60847 15 4.30874 14.8 4.10892 14.5C3.9091 14.1 4.00901 13.7 4.20883 13.4L14.1998 1.4C14.4995 1 14.9991 0.9 15.3987 1.1C15.7984 1.2 16.0981 1.7 15.9982 2.1L15.099 9H22.9919ZM14.9991 14.1L14.3996 18.7L20.7939 11H13.9001C13.7003 11 13.4005 10.9 13.2007 10.7C13.1008 10.5 13.0009 10.2 13.0009 9.9L13.5005 5.3L7.10622 13H14C14.2997 13 14.5995 13.1 14.7993 13.3C14.8992 13.5 14.9991 13.8 14.9991 14.1Z" fill="black"/>
<mask id="mask0" mask-type="alpha" maskUnits="userSpaceOnUse" x="4" y="1" width="20" height="22">
<path fill-rule="evenodd" clip-rule="evenodd" d="M22.9919 9C23.3915 9 23.6913 9.2 23.8911 9.6C24.0909 9.9 23.991 10.3 23.7912 10.6L13.8002 22.6C13.6004 22.9 13.3006 23 13.0009 23C12.901 23 12.7012 23 12.6013 22.9C12.2016 22.8 11.9019 22.3 12.0018 21.9L12.901 15H5.00811C4.60847 15 4.30874 14.8 4.10892 14.5C3.9091 14.1 4.00901 13.7 4.20883 13.4L14.1998 1.4C14.4995 1 14.9991 0.9 15.3987 1.1C15.7984 1.2 16.0981 1.7 15.9982 2.1L15.099 9H22.9919ZM14.9991 14.1L14.3996 18.7L20.7939 11H13.9001C13.7003 11 13.4005 10.9 13.2007 10.7C13.1008 10.5 13.0009 10.2 13.0009 9.9L13.5005 5.3L7.10622 13H14C14.2997 13 14.5995 13.1 14.7993 13.3C14.8992 13.5 14.9991 13.8 14.9991 14.1Z" fill="white"/>
</mask>
<g mask="url(#mask0)">
<rect x="2" width="24" height="24" fill="#347AF0"/>
</g>
</g>
<defs>
<filter id="filter0_d" x="-2" y="0" width="32" height="32" filterUnits="userSpaceOnUse" color-interpolation-filters="sRGB">
<feFlood flood-opacity="0" result="BackgroundImageFix"/>
<feColorMatrix in="SourceAlpha" type="matrix" values="0 0 0 0 0 0 0 0 0 0 0 0 0 0 0 0 0 0 127 0" result="hardAlpha"/>
<feOffset dy="4"/>
<feGaussianBlur stdDeviation="2"/>
<feComposite in2="hardAlpha" operator="out"/>
<feColorMatrix type="matrix" values="0 0 0 0 0 0 0 0 0 0 0 0 0 0 0 0 0 0 0.25 0"/>
<feBlend mode="normal" in2="BackgroundImageFix" result="effect1_dropShadow"/>
<feBlend mode="normal" in="SourceGraphic" in2="effect1_dropShadow" result="shape"/>
</filter>
</defs>
</svg>
